<?xml version="1.0" encoding="utf-8"?>
<!-- Generator: Adobe Illustrator 27.1.0, SVG Export Plug-In . SVG Version: 6.00 Build 0)  -->
<svg version="1.1" id="Layer_1" xmlns="http://www.w3.org/2000/svg" xmlns:xlink="http://www.w3.org/1999/xlink" x="0px" y="0px"
	 viewBox="0 0 800 800" style="enable-background:new 0 0 800 800;" xml:space="preserve">
<style type="text/css">
	.st0{fill:#33BBCF;}
</style>
<g>
	<path class="st0" d="M562.7,433.3c73.6,0,133.3,59.7,133.3,133.3S636.3,700,562.7,700c-71.4,0-133.3-59.7-133.3-133.3h-66.7
		c0,73.6-59.7,133.3-133.4,133.3C155.6,699.9,96,640.2,96,566.6c0-73.6,59.7-133.3,133.4-133.3c47.6,0,91.6,25.5,115.4,66.7h102.3
		C471,458.7,515,433.3,562.7,433.3z M62.7,400v-66.7h66.7v-100c0-73.6,59.7-133.3,133.3-133.3h266.7c73.6,0,133.3,59.7,133.3,133.3
		v100h66.7V400H62.7z"/>
</g>
</svg>
